<svg width="115" height="27" viewBox="0 0 115 27" fill="none" xmlns="http://www.w3.org/2000/svg">
<path d="M31.8473 1.03027C33.1274 0.982063 34.4048 1.16273 35.4752 1.75195L35.693 1.87988C37.9206 3.26265 38.3394 5.88021 38.2545 8.9502C38.2121 10.483 38.0516 12.0153 37.9655 13.5322C37.8866 14.922 37.8731 16.2763 38.1139 17.4346L38.1656 17.6641C38.3141 18.2731 38.6275 19.0148 39.3326 19.4141C39.8884 19.7288 40.6285 19.8113 41.2428 19.6104C41.5919 19.4961 41.8936 19.3534 42.1559 19.1338C42.4189 18.9134 42.6121 18.641 42.7828 18.3105L42.8405 18.1982L42.8385 18.0723C42.823 17.1659 42.6878 16.2708 42.5377 15.4053C42.3857 14.5287 42.2213 13.6946 42.1285 12.8555C41.7613 9.53211 41.9601 6.30278 42.5914 3.0127C42.6603 2.65417 42.6899 2.35988 42.7721 2.00586C42.8501 1.67002 42.9474 1.43145 43.0699 1.29102H43.0709C43.0994 1.25861 43.1708 1.20921 43.3209 1.16895C43.4656 1.13014 43.6334 1.11271 43.7965 1.10352L43.7955 1.10254C44.1137 1.08468 45.0897 1.05272 46.0211 1.07324C46.4882 1.08354 46.9308 1.10739 47.2692 1.15039C47.4278 1.17056 47.5499 1.19362 47.6354 1.2168C47.6406 1.24248 47.6483 1.27234 47.6539 1.30762C47.6792 1.46643 47.7002 1.68561 47.7174 1.9541C47.7517 2.48909 47.7676 3.17966 47.7721 3.89062C47.7766 4.59971 47.7702 5.32223 47.7633 5.91992C47.7565 6.51045 47.7488 6.99004 47.7496 7.20117V7.20215C47.7553 9.45303 47.783 11.7038 47.8326 13.9541V13.957C47.8938 16.1891 48.0345 18.3753 47.776 20.5254C47.5755 22.1924 47.1513 23.5611 45.903 24.5322C44.0522 25.9718 41.0573 26.2174 38.6725 25.8916C37.0962 25.6763 35.6812 25.0836 34.7614 23.8633C34.079 22.9581 33.7111 21.7862 33.4489 20.6016C33.0189 18.6599 32.8841 16.6627 32.6959 14.6279C32.4398 11.8595 32.207 9.08883 31.9977 6.31641C31.9538 5.73803 31.8494 4.65688 31.7731 3.56152C31.7354 3.02089 31.7062 2.49307 31.6959 2.04883C31.6856 1.60278 31.697 1.28253 31.7252 1.11621C31.7275 1.11405 31.7305 1.11137 31.734 1.1084C31.7516 1.0935 31.7775 1.07526 31.819 1.04883C31.8282 1.04297 31.8375 1.03636 31.8473 1.03027Z" fill="currentColor" stroke="currentColor"/>
<path d="M84.3221 16.8651C84.3393 16.8741 84.3538 16.8806 84.3611 16.8837C84.3759 16.8899 84.3889 16.8941 84.3953 16.8964C84.4092 16.9013 84.4237 16.9057 84.4344 16.9091C84.4572 16.9161 84.4867 16.9251 84.5193 16.9344C84.5856 16.9535 84.678 16.9795 84.7869 17.0096C85.0077 17.0707 85.2964 17.1489 85.6004 17.2333C86.0705 17.3637 86.5295 17.4943 86.7918 17.577L86.9822 17.6425C87.6745 17.9283 88.3072 18.313 88.8055 18.826C90.0501 20.1079 90.2582 22.1079 90.2088 24.0155V24.0165C90.2016 24.2945 90.1969 24.6451 90.1453 24.9725C90.0925 25.3073 90.0062 25.4795 89.9422 25.5448C89.9137 25.5552 89.8685 25.5693 89.8035 25.5839C89.6699 25.6137 89.4874 25.6414 89.2625 25.6649C88.8138 25.7119 88.2402 25.7396 87.6472 25.7528C86.4555 25.7794 85.2424 25.7463 84.8738 25.7098C84.6144 25.6841 84.4549 25.6395 84.3523 25.5692C84.3207 25.3728 84.2953 25.0777 84.281 24.701C84.2635 24.2393 84.2621 23.6932 84.2674 23.1327C84.2777 22.0381 84.3179 20.8304 84.3181 20.2303V16.8632C84.3199 16.8641 84.3213 16.8647 84.3221 16.8651ZM84.4842 1.08386C87.9828 1.04273 91.4807 1.08027 94.991 1.08289C95.7355 2.97795 96.5436 4.76032 97.2117 6.62781C95.7909 6.48698 94.3429 6.43219 92.9422 6.39832C92.4611 6.38664 91.8185 6.33383 91.2537 6.3905C90.9975 6.41616 90.7639 6.52787 90.5857 6.67859C90.1317 7.06278 90.0367 7.67693 90.0056 8.03796V8.03894C89.9838 8.2946 89.9766 8.65056 90.0281 8.9989C90.0765 9.32604 90.1918 9.7527 90.5017 10.0389C90.6662 10.1907 90.8741 10.2747 91.0603 10.326C91.2536 10.3793 91.4704 10.4104 91.6912 10.4276C92.1325 10.4619 92.6502 10.4458 93.1551 10.4139C93.6623 10.3819 94.179 10.3317 94.6131 10.2919C95.062 10.2507 95.3988 10.2239 95.5896 10.2284C95.7492 10.2323 95.8996 10.2455 96.0262 10.2792C96.1528 10.3129 96.2193 10.3572 96.2537 10.3964C96.2659 10.4103 96.3043 10.4667 96.3484 10.6005C96.3902 10.7273 96.4274 10.8927 96.4588 11.0927C96.5214 11.4924 96.5525 11.9872 96.5633 12.5038C96.5848 13.5349 96.523 14.5976 96.4861 15.0428C96.4642 15.306 96.3929 15.4565 96.2654 15.5614C96.2373 15.5844 96.1327 15.6412 95.8933 15.6981C95.669 15.7515 95.3781 15.7932 95.032 15.8231C94.341 15.8828 93.4786 15.892 92.5857 15.8719C90.8025 15.832 88.9497 15.6805 88.201 15.6229L88.1892 15.6219L88.1765 15.621C87.9681 15.6153 87.7025 15.5847 87.3885 15.5428C87.0842 15.5023 86.7339 15.4514 86.3943 15.413C86.053 15.3743 85.6985 15.3451 85.3689 15.3514C85.0462 15.3576 84.7055 15.3981 84.4129 15.5243L84.3191 15.5643L84.3211 6.66199C84.3236 5.73324 84.3389 4.77905 84.3181 3.83289C84.2996 2.9808 84.2067 2.24648 84.2996 1.51746C84.3271 1.30165 84.3522 1.23847 84.3719 1.20398C84.3858 1.17971 84.4116 1.14742 84.4842 1.08386Z" fill="currentColor" stroke="currentColor"/>
<path d="M103.003 13.9839C104.083 14.2755 105.176 14.3486 106.215 14.437L106.233 14.439H106.252C106.49 14.4416 106.872 14.4383 107.309 14.436C107.751 14.4338 108.258 14.4326 108.758 14.439C109.258 14.4454 109.746 14.46 110.151 14.4878C110.577 14.517 110.852 14.5585 110.967 14.5981H110.968C111.063 14.6311 111.116 14.6673 111.152 14.7026C111.19 14.7394 111.232 14.7967 111.276 14.9009C111.327 15.0198 111.361 15.1933 111.359 15.3784C111.358 15.5187 111.336 15.64 111.304 15.7319L111.268 15.814C111.268 15.8152 111.267 15.8172 111.265 15.8198C111.262 15.8228 111.255 15.8277 111.243 15.8354C111.217 15.8524 111.174 15.8739 111.102 15.896C111.031 15.9182 110.95 15.9364 110.851 15.9575L110.538 16.0317C110.238 16.12 109.803 16.2991 109.596 16.7759C109.421 17.1769 109.401 17.6631 109.409 18.0698C109.414 18.2814 109.426 18.4922 109.439 18.6831L109.47 19.1968C109.49 19.8926 109.569 21.3417 109.579 22.7651C109.584 23.4737 109.572 24.1602 109.527 24.7251C109.505 25.0076 109.474 25.2519 109.436 25.4487C109.412 25.5776 109.383 25.6725 109.36 25.7397C109.357 25.7407 109.353 25.7435 109.349 25.7446C108.869 25.862 108.276 25.8198 107.664 25.6567C107.057 25.4949 106.471 25.2248 106.022 24.9341C105.046 24.3007 104.42 23.3098 104.035 22.1509C103.649 20.99 103.516 19.693 103.504 18.5054C103.499 18.023 103.528 17.5686 103.535 17.0298C103.542 16.5181 103.527 15.9779 103.423 15.4526C103.326 14.9651 103.175 14.4727 103.003 13.9839ZM111.593 0.980957C112.692 0.975934 113.755 1.01632 114.185 1.08447C114.317 1.10523 114.409 1.1289 114.497 1.1665C114.498 1.24949 114.489 1.39664 114.452 1.61865C114.41 1.87255 114.342 2.18708 114.253 2.54639C114.075 3.26424 113.819 4.13705 113.539 5.02002C112.976 6.79649 112.332 8.56047 112.049 9.15674V9.15771C111.806 9.66731 111.475 10.154 111.101 10.5991C110.021 11.8857 108.804 12.4005 107.448 12.6313C106.76 12.7486 106.037 12.7926 105.268 12.8237C104.509 12.8545 103.697 12.8732 102.874 12.9448L102.818 13.4829C102.476 12.5988 102.078 11.739 101.766 10.9653C100.929 8.88689 100.114 6.76831 99.2372 4.68896C99.1151 4.39943 98.9803 4.10293 98.8475 3.80811C98.7138 3.5112 98.5809 3.21481 98.4559 2.91748C98.2063 2.32358 97.9994 1.74645 97.8944 1.1958C97.9526 1.16528 98.0497 1.13014 98.205 1.104C98.4383 1.06478 98.6763 1.0614 98.9169 1.04736L98.9305 1.04639C99.2242 1.02139 100.503 1.01367 101.769 1.03467C102.396 1.04505 103.006 1.06206 103.474 1.08643C103.708 1.09866 103.901 1.1126 104.039 1.12744C104.077 1.13152 104.108 1.13555 104.134 1.13916C104.134 1.14004 104.135 1.14118 104.136 1.14209C104.17 1.18595 104.213 1.2517 104.265 1.34326C104.368 1.52655 104.484 1.77902 104.611 2.08838C104.864 2.70525 105.137 3.50433 105.397 4.33154C105.917 5.98339 106.375 7.70796 106.505 8.2251L107.474 8.22803C107.746 7.16024 107.994 5.69675 108.281 4.35889C108.553 3.09019 108.866 1.91538 109.273 1.08643C109.766 1.02297 110.654 0.985246 111.593 0.980957Z" fill="currentColor" stroke="currentColor"/>
<path d="M14.4443 1.05151L15.3974 1.07397C16.2372 1.07602 17.0083 1.02201 17.7636 1.09546C17.8824 1.10699 18.0653 1.12674 18.2285 1.16479C18.2851 1.178 18.3309 1.19212 18.3662 1.20483C18.3669 1.22051 18.3701 1.24013 18.3691 1.2644C18.3648 1.37033 18.3411 1.50827 18.3007 1.66968C18.2141 2.01574 18.1009 2.29951 18.0215 2.56323L18.0175 2.5769L18.0146 2.59058C17.8524 3.26696 17.6705 3.93804 17.4824 4.61108L16.9131 6.64429L14.8564 14.1658C14.3132 14.1693 13.5925 14.1843 12.79 14.2019C11.8376 14.2228 10.7592 14.2422 9.69137 14.239L9.90622 13.4275C10.6354 10.6709 11.3201 7.90266 11.959 5.12378C12.21 4.05441 12.3771 3.07334 12.6465 2.05933V2.05835C12.6971 1.86753 12.7361 1.68599 12.7988 1.48901C12.841 1.35646 12.8795 1.26808 12.9091 1.2146C13.1026 1.13645 13.3124 1.09377 13.5605 1.07104C13.8554 1.04413 14.144 1.04418 14.4443 1.05151ZM1.15329 1.04956C2.58595 0.992145 3.96579 0.941827 5.09176 1.5564C6.46038 2.30351 7.22775 3.79506 7.6943 5.58862C8.16115 7.38337 8.29335 9.32955 8.49899 10.9158V10.9167C8.59587 11.6636 8.66886 12.559 8.91989 13.3689C8.92943 13.3996 8.94137 13.4338 8.94821 13.4548L9.20211 14.2351C8.15425 14.2242 7.14605 14.1886 6.30563 14.1033C5.84998 14.057 5.45308 13.9976 5.13083 13.9236C4.79971 13.8476 4.5845 13.764 4.46676 13.6892C4.46486 13.6878 4.45731 13.6827 4.44528 13.6707C4.43054 13.6559 4.4123 13.6343 4.39059 13.6052C4.34623 13.5457 4.29858 13.4671 4.24997 13.3738C4.15216 13.1859 4.0695 12.9773 4.00583 12.8132C3.58076 11.7182 3.27019 10.5585 2.94333 9.38452L2.60641 8.20776C1.97377 6.0901 1.28609 4.04073 0.709927 1.93823C0.665192 1.77501 0.592863 1.56215 0.540005 1.32007C0.520248 1.22956 0.509182 1.15338 0.503872 1.09448C0.532292 1.08529 0.570984 1.07604 0.622036 1.06909C0.787829 1.04657 0.925766 1.05728 1.15036 1.04956H1.15329Z" fill="currentColor" stroke="currentColor"/>
<path d="M28.9626 12.7422C29.1213 12.747 29.1647 12.7785 29.1599 12.7744C29.1598 12.7744 29.1632 12.7774 29.1696 12.7852C29.1764 12.7934 29.1855 12.8055 29.196 12.8223C29.2176 12.8566 29.2408 12.9028 29.2653 12.9609C29.3164 13.082 29.3549 13.2121 29.3981 13.3496C30.1105 15.6161 30.6333 18.0248 31.2683 20.3779C31.4852 21.1819 31.7569 22.0175 31.9919 22.8125C32.2309 23.6211 32.4412 24.4144 32.5583 25.1953C32.5677 25.2577 32.575 25.3052 32.5798 25.3516C32.5844 25.3965 32.585 25.4283 32.5837 25.4512C32.5832 25.4588 32.5813 25.4646 32.5808 25.4688C32.5097 25.5356 32.3424 25.5977 32.0896 25.6064C31.8694 25.614 31.6436 25.6079 31.404 25.5996C31.1695 25.5915 30.9161 25.5802 30.6647 25.5811C30.4196 25.5819 30.1649 25.5927 29.9147 25.6035C29.6615 25.6145 29.4125 25.6258 29.1647 25.6309C28.6661 25.641 28.2103 25.6231 27.8181 25.5312C27.5702 25.4732 27.4548 25.4018 27.3855 25.2998C27.3112 25.1903 27.2545 24.9872 27.2224 24.6758C27.2072 24.5293 27.1993 24.3778 27.1911 24.2217C27.1832 24.0712 27.1749 23.9085 27.1599 23.7637C27.1189 23.3678 27.0153 22.8383 26.5808 22.4521C26.26 22.1673 25.8663 22.0631 25.5466 22.0176C25.1616 21.9628 24.7697 21.964 24.404 21.9775C24.0183 21.9918 23.6967 22.0166 23.3571 22.0205L22.5524 22.0098C22.2774 22.0037 21.989 21.9989 21.6989 22.0107C21.0909 22.0357 20.6235 22.2077 20.2966 22.5498C19.9826 22.8784 19.8686 23.2949 19.8054 23.6445C19.7734 23.8215 19.75 24.0073 19.7282 24.1709C19.7057 24.3408 19.6831 24.4953 19.6511 24.6416C19.5873 24.9331 19.4943 25.1495 19.3337 25.3115C19.1785 25.4681 18.9756 25.5487 18.6999 25.584C18.405 25.6217 18.1026 25.601 17.7312 25.5947H17.7253C17.2534 25.5919 16.755 25.628 16.3122 25.6455C15.8539 25.6636 15.4254 25.6645 15.0183 25.6055C14.738 25.5648 14.6523 25.5093 14.6022 25.4326C14.5956 25.4223 14.5854 25.4006 14.5827 25.3477C14.5797 25.2889 14.5872 25.2148 14.6052 25.1084V25.1074C14.6936 24.5844 14.8389 24.0546 15.0036 23.5088C15.0844 23.2412 15.171 22.9649 15.2565 22.6865L15.5017 21.8516C16.1113 19.611 16.698 17.3643 17.2634 15.1123C18.8372 14.6626 20.4271 14.3169 22.0446 14.0244L21.4782 16.543L21.3415 17.1533L21.9665 17.1523L24.944 17.1494H25.5524L25.4333 16.5518C25.2292 15.5293 24.9764 14.5115 24.7331 13.5117C25.9591 13.1724 27.2248 12.9449 28.4997 12.7773L28.4987 12.7764C28.658 12.7563 28.8167 12.7378 28.9626 12.7422Z" fill="currentColor" stroke="currentColor"/>
<path d="M65.5761 1.08813C68.0706 1.08497 70.5582 0.983246 73.0018 1.11255C73.1842 1.12219 73.3772 1.12753 73.5673 1.15259C73.68 1.16746 73.7611 1.18714 73.8163 1.20435C73.8552 1.31396 73.8704 1.44394 73.8759 1.64282C73.892 2.21807 73.811 2.81691 73.7509 3.45825C73.6027 5.04019 73.5193 6.27442 72.5653 7.31274C72.5408 7.33012 72.5168 7.3479 72.4921 7.3645C72.167 7.5819 71.5401 7.77235 70.6698 7.90747C69.8214 8.03919 68.8124 8.10902 67.7821 8.1311C65.7111 8.17547 63.6252 8.02463 62.664 7.82153C61.1433 7.50021 59.8007 6.74355 58.9813 5.47485C58.6963 5.03339 58.3552 4.22389 58.122 3.37231C58.0066 2.9511 57.922 2.53378 57.8827 2.16138C57.8426 1.78165 57.8533 1.48197 57.9052 1.27954C57.9275 1.19238 57.9496 1.164 57.9628 1.14868C57.9758 1.13357 57.9963 1.11476 58.036 1.08618C60.5347 1.00575 63.0394 1.09136 65.5761 1.08813Z" fill="currentColor" stroke="currentColor"/>
<path d="M67.8014 9.83521C68.2465 9.82101 68.7034 9.83659 69.1021 9.91724C69.6327 10.0245 70.0083 10.2807 70.2994 10.7375C70.5918 11.1963 70.7829 11.8624 70.8893 12.6917C70.9946 13.5132 71.0112 14.45 70.9859 15.4192C70.9607 16.3881 70.8944 17.3715 70.8375 18.2903C70.7812 19.2001 70.7339 20.0567 70.7516 20.7434C70.7643 21.2376 70.8738 22.3712 70.9537 23.4084C70.9945 23.9374 71.0284 24.4495 71.0416 24.8665C71.0482 25.075 71.0486 25.2537 71.0436 25.3958C71.0381 25.5478 71.0261 25.6236 71.0201 25.6458C71.0166 25.6588 71.0118 25.6684 71.0094 25.676L71.0084 25.678C70.9385 25.7132 70.7882 25.7497 70.5387 25.7571C70.301 25.7641 70.02 25.7446 69.7252 25.7063C69.1509 25.6317 68.5691 25.4937 68.233 25.3977C67.4481 25.0858 66.8068 24.73 66.2721 24.1506C65.6506 23.4772 65.2226 22.5998 64.9146 21.6809C63.9009 18.6564 64.307 15.7366 64.398 12.4563C64.4131 11.9138 64.3714 11.377 64.3346 10.8733C64.3095 10.5298 64.2868 10.1997 64.2809 9.87524C65.4439 9.87693 66.6251 9.8836 67.8014 9.83521Z" fill="currentColor" stroke="currentColor"/>
<path d="M82.3007 9.47742C82.3323 10.3692 82.2981 11.2717 82.2939 12.205C82.2552 15.1526 82.1791 18.1 82.0673 21.0458V21.0507C82.047 21.7659 82.0842 22.7292 82.0829 23.5878C82.0817 24.4134 82.0443 25.1736 81.9179 25.7401C81.8976 25.7502 81.8748 25.7601 81.8446 25.7665L81.7519 25.7792C81.1671 25.8325 80.4457 25.7001 79.7274 25.4374C79.0253 25.1805 78.3683 24.8137 77.8954 24.4325C76.4854 22.9596 76.2053 21.0047 76.0185 18.8544C75.9183 17.702 75.8337 16.1519 75.9677 14.6737C76.1037 13.1732 76.4563 11.85 77.1464 11.0614C77.7146 10.4122 78.5311 10.0309 79.4735 9.80457C80.3931 9.58379 81.3844 9.52123 82.3007 9.47742Z" fill="currentColor" stroke="currentColor"/>
<path d="M50.3604 1.13037C51.7703 1.04893 53.3204 1.365 54.3594 2.20947C55.5332 3.16345 55.8928 4.82323 56.0616 6.46729C56.2179 7.98883 56.3843 9.85316 56.2647 11.6421C56.1455 13.4247 55.7448 15.0533 54.8399 16.188C54.6895 16.3206 54.5137 16.4384 54.335 16.522C53.9234 16.7141 53.0898 16.9036 52.21 16.9927C51.7787 17.0363 51.3551 17.0537 50.9883 17.0386C50.6108 17.023 50.3343 16.9742 50.1739 16.9097C50.1551 16.9021 50.1325 16.8918 50.1094 16.8794C50.09 16.8689 50.0732 16.8577 50.0596 16.8481C49.9736 16.4743 49.9595 15.9804 49.9786 15.4282C49.9885 15.1419 50.0067 14.853 50.0235 14.5688C50.04 14.2898 50.0551 14.0125 50.0596 13.7612L50.2921 4.66553V4.66357C50.3051 4.07205 50.2758 3.45542 50.2628 2.88232C50.2495 2.297 50.2523 1.73836 50.3204 1.20557C50.3192 1.21439 50.3198 1.19681 50.3536 1.14111C50.3557 1.13756 50.3581 1.13404 50.3604 1.13037Z" fill="currentColor" stroke="currentColor"/>
<path d="M21.4649 1.04358C22.1348 0.976471 22.9319 0.970675 23.7032 1.07092C24.4802 1.17195 25.196 1.37708 25.7295 1.70862C26.5084 2.19264 27.136 3.06271 27.6299 4.09827C28.1198 5.12551 28.4534 6.26253 28.6748 7.21252C28.8937 8.15111 28.9157 8.82744 28.4532 9.55334C27.6203 10.8606 26.0569 11.6396 24.4668 12.0573C24.4062 11.7307 24.3616 11.3927 24.3106 11.0309L24.3096 11.0201L24.3076 11.0094L24.2432 10.6188C24.1854 10.2265 24.144 9.82859 24.0869 9.40198L23.1035 9.35901C22.8567 10.4645 22.5892 11.5653 22.3047 12.6617C21.7787 12.7226 21.1963 12.7594 20.626 12.733C19.9278 12.7008 19.2836 12.579 18.7881 12.3336C18.5299 12.2057 18.3873 12.0545 18.3311 11.8707C18.3 11.7688 18.2915 11.6655 18.3057 11.5397L18.3272 11.4049C18.6402 9.86755 19.2164 8.25513 19.6534 6.64221V6.64124L20.544 3.31702L20.545 3.31213C20.5986 3.10366 20.6475 2.88726 20.6953 2.67542C20.7437 2.46128 20.7908 2.25116 20.8428 2.04358C20.9317 1.68831 21.0321 1.36109 21.1582 1.07288C21.1597 1.07262 21.1616 1.07215 21.1631 1.0719C21.1926 1.06703 21.228 1.06324 21.2803 1.0592C21.327 1.0556 21.3969 1.05054 21.4649 1.04358Z" fill="currentColor" stroke="currentColor"/>
<path d="M53.3368 18.4111C54.352 18.4083 55.296 18.3825 56.2323 18.5068C56.3082 18.8655 56.2978 19.228 56.2939 19.7168L56.29 20.2197L56.7939 20.2207C56.9976 20.2208 57.3769 20.208 57.8183 20.1943C58.2668 20.1805 58.7934 20.1651 59.3085 20.1602C59.8257 20.1552 60.322 20.16 60.7118 20.1855C60.9075 20.1984 61.0652 20.2165 61.1806 20.2373C61.2376 20.2476 61.2721 20.2565 61.29 20.2617C61.2923 20.2645 61.2949 20.2677 61.2978 20.2715C61.3165 20.2962 61.3387 20.331 61.3632 20.376C61.4131 20.4674 61.4573 20.5717 61.495 20.666C61.6314 21.0071 61.9862 22.1319 62.3036 23.2676C62.4611 23.8312 62.6066 24.3865 62.7079 24.8359C62.7587 25.0609 62.7974 25.2539 62.8212 25.4053C62.8331 25.481 62.8399 25.5424 62.8437 25.5889C62.8468 25.6272 62.8467 25.6464 62.8466 25.6514C62.8457 25.6602 62.8454 25.6665 62.8446 25.6699C62.8436 25.6713 62.8397 25.6736 62.8339 25.6797C62.7382 25.6899 62.6423 25.6993 62.5458 25.7031H62.5419C61.5892 25.7487 60.6618 25.6953 59.6571 25.6914C56.7384 25.6803 53.8666 25.6968 51.7841 23.7734C50.5233 22.6089 49.9315 20.7238 49.8925 18.9463C49.8866 18.6802 49.8999 18.537 49.955 18.4248L53.3368 18.4111Z" fill="currentColor" stroke="currentColor"/>
<path d="M14.508 15.5862C14.4204 15.9338 14.303 16.3587 14.178 16.7922C13.9326 17.6428 13.6512 18.557 13.5559 18.9016C13.2037 20.1752 12.839 21.4586 12.4993 22.7444C12.2965 23.5112 12.1546 24.2049 11.9348 24.9163C11.8349 25.2395 11.729 25.526 11.5891 25.7766C11.4804 25.8327 11.3873 25.8586 11.2541 25.8684C10.6581 25.9121 9.9234 25.7448 9.19261 25.4377C8.4731 25.1354 7.80449 24.7171 7.33714 24.304C6.35195 23.3441 5.75691 22.221 5.66234 20.8713C5.58129 19.714 5.84277 18.6184 6.57249 17.7854C7.33738 16.9126 8.76714 16.3407 10.4241 15.9719C11.8386 15.6571 13.3353 15.5081 14.5481 15.4114C14.5352 15.4653 14.5237 15.524 14.508 15.5862Z" fill="currentColor" stroke="currentColor"/>
<path d="M76.0392 1.08569C77.1905 1.09101 78.2763 1.31108 79.2473 1.8728C80.6627 2.69163 81.4777 4.07922 81.9025 5.71558C81.9653 5.95719 82.1171 6.59884 82.216 7.22437C82.2656 7.53835 82.2995 7.83341 82.3049 8.06616C82.306 8.11688 82.3053 8.16217 82.3039 8.2019C80.2054 8.14417 78.1481 8.13431 76.0754 8.03101C76.0416 7.90332 76.014 7.77659 75.9943 7.64526L75.965 7.40112C75.8889 6.52747 75.9541 5.68697 75.9445 4.72925C75.9323 3.51798 75.8133 2.4009 75.9689 1.31226C75.9884 1.17653 76.0068 1.13346 76.0178 1.11401C76.0213 1.10778 76.0278 1.09887 76.0392 1.08569Z" fill="currentColor" stroke="currentColor"/>
</svg>
