<svg width="24" height="27" viewBox="0 0 24 27" fill="none" xmlns="http://www.w3.org/2000/svg">
<path d="M6.64698 2.71994C7.34381 2.39651 8.02369 2.02582 8.70635 1.67358L11.9538 0C13.0706 0.539583 14.1661 1.12648 15.2668 1.69716L17.297 2.72512C15.7866 3.45065 13.6741 3.74671 12.0094 3.74573C10.1713 3.72003 8.34579 3.42572 6.64698 2.71994Z" fill="currentColor"/>
<path d="M1.14174 5.55852C2.40403 4.96903 3.63442 4.30217 4.88076 3.67957C5.7549 4.14115 6.65176 4.56979 7.49096 5.09253C9.19276 6.15252 10.7124 7.71198 11.5192 9.54963C11.713 9.99101 11.8394 10.4455 11.987 10.9022C12.0581 10.6224 12.1343 10.3453 12.2313 10.0728C12.9935 7.93187 14.706 6.18107 16.6228 4.99168C17.4161 4.49941 18.2653 4.08949 19.1101 3.69205C19.5598 3.95703 20.0564 4.17391 20.5267 4.4024C21.3081 4.78205 22.0919 5.16684 22.86 5.57194C22.3415 5.8437 21.8263 6.12163 21.3146 6.40567C20.5333 6.85197 19.7304 7.25962 18.9381 7.68617L15.5636 9.52813L13.441 10.6798C12.9596 10.9443 12.4708 11.2468 11.9629 11.4569L1.14174 5.55852Z" fill="currentColor"/>
<path d="M0.00209692 13.8656L0.000576019 8.00134C0.705637 8.35022 1.39328 8.75029 2.08182 9.1301C2.99619 9.6346 3.91933 10.1328 4.81881 10.6624C4.84755 10.8235 4.86607 10.9925 4.871 11.1559C4.89744 12.0327 4.55582 12.7665 3.95238 13.3925C3.62125 13.7282 3.18006 13.9904 2.73185 14.1403C1.80063 14.4518 0.865009 14.2871 0.00209692 13.8656Z" fill="currentColor"/>
<path d="M18.939 10.7903C19.4515 10.478 19.9882 10.1967 20.5138 9.90601C21.6585 9.27195 22.8096 8.64893 23.9667 8.03711C24.0301 8.13117 23.9847 13.2896 23.9774 13.9274C23.4947 14.1963 22.8601 14.3267 22.3092 14.3302C21.4097 14.3358 20.6347 13.9375 20.0031 13.3254C19.2811 12.6092 19.044 11.7645 18.939 10.7903Z" fill="currentColor"/>
<path d="M10.357 20.1686C10.0777 19.9649 9.79206 19.7608 9.53317 19.532C7.13795 17.415 5.56725 14.1456 5.38123 10.9828C5.99637 11.2898 6.59405 11.6484 7.19529 11.9819C8.25199 12.5616 9.30497 13.1478 10.3543 13.7404L10.357 20.1686Z" fill="currentColor"/>
<path d="M13.613 13.7343C14.5135 13.2116 15.4438 12.7235 16.3591 12.2257C17.0686 11.8399 17.7698 11.434 18.4882 11.0651L18.5118 11.0855C18.5771 11.4277 18.4286 12.2138 18.3649 12.5813C17.8546 15.524 16.1253 18.4299 13.6455 20.1627C13.5745 20.0723 13.6098 14.3114 13.613 13.7343Z" fill="currentColor"/>
<path d="M0 21.2124L0.00105022 14.2139C0.0224538 14.2253 0.0273327 14.2271 0.0496806 14.2435C0.4585 14.5427 0.833745 14.9837 1.17605 15.3534C3.41157 17.7681 4.74048 20.8901 5.15229 24.12C4.49571 23.7833 3.85947 23.3934 3.21815 23.0282L0 21.2124Z" fill="currentColor"/>
<path d="M18.8701 24.0798C18.8302 23.9486 18.8698 23.7472 18.8845 23.6105C19.2484 20.2156 21.2603 16.4204 23.9593 14.2733C24.0301 14.4594 23.9773 16.4489 23.9764 16.7812L23.982 21.2406C22.3032 22.222 20.5816 23.1549 18.8701 24.0798Z" fill="currentColor"/>
<path d="M5.56342 24.3489C5.61646 23.402 5.7911 22.5212 6.3659 21.7396C6.92423 20.9804 7.72587 20.5526 8.6522 20.4045C9.2493 20.3503 9.79808 20.5114 10.3512 20.718C10.381 22.7617 10.3564 24.8098 10.3571 26.854C9.67853 26.5306 9.01727 26.1709 8.35418 25.8179C7.42858 25.3196 6.49825 24.83 5.56342 24.3489Z" fill="currentColor"/>
<path d="M13.615 20.7574C14.0514 20.5752 14.4639 20.4509 14.9361 20.4063C14.9418 20.4059 14.9475 20.4053 14.9532 20.4052C15.7985 20.394 16.5532 20.689 17.1603 21.2697C18.0308 22.1022 18.3455 23.1612 18.3643 24.3318C17.5074 24.7831 16.67 25.2849 15.8269 25.7615C15.0846 26.1642 14.3621 26.6023 13.6168 27L13.615 20.7574Z" fill="currentColor"/>
</svg>
